<?xml version="1.0" encoding="UTF-8"?>
<svg version="1.1" xmlns="http://www.w3.org/2000/svg" width="505" height="371">

<path d="M0 0 C0.99 0.33 1.98 0.66 3 1 C3.84375 2.9609375 3.84375 2.9609375 4.5 5.375 C5.45488639 8.8648824 6.411335 10.51808408 9 13 C9.921875 14.8046875 9.921875 14.8046875 10.75 16.875 C12.94959564 22.12481616 15.75186922 26.97012793 18.609375 31.88671875 C20.09563769 35.21411023 20.28060042 37.40075995 20 41 C20.66 41 21.32 41 22 41 C23.34375 42.98828125 23.34375 42.98828125 25 46 C25.34160156 46.6089209 25.68320313 47.2178418 26.03515625 47.84521484 C34.64004307 63.27479631 34.64004307 63.27479631 36.3671875 71.01953125 C37.14031288 73.43912734 38.45236337 75.00265743 40 77 C40.33 77.99 40.66 78.98 41 80 C41.474375 80.474375 41.94875 80.94875 42.4375 81.4375 C45.2387125 84.2387125 45.97207048 86.27383239 46.125 90.25 C46.08375 91.1575 46.0425 92.065 46 93 C46.66 93 47.32 93 48 93 C53.42081456 102.3351 58.69236876 111.64811064 63 121.5625 C64.69085539 125.44192224 66.68690105 129.07023886 68.77734375 132.74609375 C70.37336861 135.68828654 71.69853275 138.71571904 73.01953125 141.7890625 C74.02185026 144.0492719 75.11909317 146.23917585 76.25 148.4375 C78 152 78 152 78 154 C78.66 154 79.32 154 80 154 C80.50660156 155.26457031 80.50660156 155.26457031 81.0234375 156.5546875 C81.46945313 157.65039062 81.91546875 158.74609375 82.375 159.875 C82.81585938 160.96554688 83.25671875 162.05609375 83.7109375 163.1796875 C84.83051338 166.06329362 84.83051338 166.06329362 87 168 C87.8563027 170.63233792 88.38929927 173.29546818 89 176 C89.66 176 90.32 176 91 176 C91.33 177.98 91.66 179.96 92 182 C92.66 182 93.32 182 94 182 C94.84212256 183.91282125 95.67338864 185.83042473 96.5 187.75 C96.9640625 188.81734375 97.428125 189.8846875 97.90625 190.984375 C99 194 99 194 99 198 C99.66 198 100.32 198 101 198 C101.4021875 199.1446875 101.4021875 199.1446875 101.8125 200.3125 C102.78263638 202.99212054 102.78263638 202.99212054 104.5625 204.4375 C106.6576525 206.71483967 106.66634356 208.99709203 107 212 C107.66 212 108.32 212 109 212 C114.55580866 222.37357631 114.55580866 222.37357631 115 228 C115.66 228 116.32 228 117 228 C117.98065487 230.27020102 118.9595769 232.54112254 119.9375 234.8125 C120.21529297 235.45509766 120.49308594 236.09769531 120.77929688 236.75976562 C121.9518811 239.48637715 123.06089549 242.18268646 124 245 C124.515625 245.474375 125.03125 245.94875 125.5625 246.4375 C127 248 127 248 127 252 C119.52541175 252.12668307 112.05109985 252.2143025 104.57568359 252.2746582 C102.03228408 252.29981627 99.48895696 252.33394631 96.94580078 252.37719727 C93.29181062 252.43778821 89.63877549 252.46619767 85.984375 252.48828125 C84.27637726 252.52699089 84.27637726 252.52699089 82.53387451 252.56648254 C74.67108433 252.56928178 74.67108433 252.56928178 71.29785156 249.70776367 C69.74095389 246.45954094 69.28052853 243.57673874 69 240 C68.34 240 67.68 240 67 240 C62.77676538 230.58997722 62.77676538 230.58997722 61 226 C60.34 226 59.68 226 59 226 C58.79246094 225.42894531 58.58492187 224.85789062 58.37109375 224.26953125 C56.42091617 219.13705553 54.17016538 214.3630554 51.5 209.5625 C47.52913271 202.34506524 44.47989327 195.12490425 43 187 C42.34 187 41.68 187 41 187 C36.36121589 178.92507952 31.80957044 170.82140814 27.625 162.5 C27.14353516 161.55060547 27.14353516 161.55060547 26.65234375 160.58203125 C25.04041417 157.33776793 23.62123056 154.09143628 22.3671875 150.69140625 C21.16582176 147.44771876 19.7991788 144.92366556 18 142 C17.3388266 140.41318385 16.67795354 138.8262409 16.01953125 137.23828125 C14.61543939 134.15573476 13.03497169 131.17272403 11.4375 128.1875 C10.83808594 127.06730469 10.23867187 125.94710937 9.62109375 124.79296875 C8.14394088 121.9728757 8.14394088 121.9728757 6 120 C5.1484375 117.94140625 5.1484375 117.94140625 4.375 115.5625 C4.11460937 114.78003906 3.85421875 113.99757813 3.5859375 113.19140625 C3 111 3 111 3 108 C1.68 108 0.36 108 -1 108 C-1.12117188 108.60328125 -1.24234375 109.2065625 -1.3671875 109.828125 C-1.53476563 110.62734375 -1.70234375 111.4265625 -1.875 112.25 C-2.03742188 113.03890625 -2.19984375 113.8278125 -2.3671875 114.640625 C-2.99893552 116.99603118 -3.75040992 118.90809364 -5 121 C-5.99 121.495 -5.99 121.495 -7 122 C-7.74115397 123.91150726 -8.47510649 125.82632327 -9.16113281 127.75830078 C-10.47889785 131.27975553 -12.16926764 134.59093392 -13.875 137.9375 C-14.22651123 138.63480225 -14.57802246 139.33210449 -14.94018555 140.05053711 C-17.14678808 144.40246172 -19.42813561 148.69858535 -21.89453125 152.91015625 C-23.13440091 155.25407947 -24.13456922 157.67343102 -25.16333008 160.11547852 C-26.58332489 163.31388527 -28.26443368 166.3660558 -29.9375 169.4375 C-30.64912592 170.75874403 -31.36007082 172.0803551 -32.0703125 173.40234375 C-32.57353027 174.33796143 -32.57353027 174.33796143 -33.08691406 175.29248047 C-35.35755174 179.53869436 -37.4978129 183.81301231 -39.375 188.25 C-41.69419921 193.60199818 -44.39145368 198.78290737 -47 204 C-24.89 204 -2.78 204 20 204 C12.2447289 211.7552711 4.14864286 218.9635603 -4.3828125 225.8515625 C-7.56659795 228.46511772 -10.61930102 231.20468296 -13.67578125 233.96484375 C-17.12161709 236.98212185 -20.71977784 239.80409256 -24.32421875 242.62890625 C-26.562351 244.61218549 -27.88537555 246.22511341 -29.59683228 248.598526 C-32.0031342 251.41457676 -33.50732028 252.49599309 -37.21420288 252.84178162 C-38.85157497 252.86192076 -40.48970564 252.8437923 -42.12646484 252.79467773 C-43.02466949 252.79569992 -43.92287415 252.79672211 -44.84829712 252.79777527 C-47.80373412 252.79291591 -50.75604347 252.73855473 -53.7109375 252.68359375 C-55.76500765 252.67053164 -57.81909967 252.66057036 -59.87319946 252.65357971 C-65.26931383 252.6269026 -70.664101 252.55818218 -76.05969238 252.48065186 C-81.56956021 252.40893573 -87.07964333 252.37705027 -92.58984375 252.34179688 C-103.39381104 252.26681174 -114.19679499 252.14740108 -125 252 C-124.35624217 247.72379336 -123.45900171 244.46066991 -121.4375 240.625 C-120.98246094 239.75101563 -120.52742188 238.87703125 -120.05859375 237.9765625 C-119.70925781 237.32429687 -119.35992187 236.67203125 -119 236 C-118.34 236 -117.68 236 -117 236 C-116.9175 235.175 -116.835 234.35 -116.75 233.5 C-115.83552731 229.23246079 -114.07776822 225.80763106 -112 222 C-111.34 222 -110.68 222 -110 222 C-109.87625 221.0925 -109.7525 220.185 -109.625 219.25 C-109.07890323 216.41029677 -108.42736197 214.47409409 -107 212 C-106.34 212 -105.68 212 -105 212 C-104.62875 210.205625 -104.62875 210.205625 -104.25 208.375 C-103.22304779 204.25282819 -101.38033763 201.53650163 -99 198 C-98.17811163 196.09609697 -97.3896492 194.17760442 -96.625 192.25 C-93.81991942 185.29340017 -90.20471103 179.11253322 -85.875 173 C-82.22861898 167.16579037 -80.06483967 160.53865895 -78 154 C-77.34 154 -76.68 154 -76 154 C-75.82984375 153.40832031 -75.6596875 152.81664062 -75.484375 152.20703125 C-73.4323068 145.51597908 -73.4323068 145.51597908 -71.0625 142.6875 C-68.28904125 139.0735992 -67.3159295 135.27334217 -66.02734375 130.9375 C-64.98864176 127.96752321 -63.7036507 125.63639946 -62 123 C-58.48095764 117.41645279 -55.5096101 112.03880367 -53.17578125 105.86328125 C-51.43753468 101.63027549 -49.34127542 97.5865771 -47.26953125 93.51049805 C-44.61953896 88.28123634 -42.10444649 82.99943036 -39.625 77.6875 C-34.09243213 65.89103398 -28.00041879 54.39562777 -21.6875 43 C-18.82246992 37.80050096 -16.37683063 32.43726299 -14 27 C-13.34 27 -12.68 27 -12 27 C-11.82984375 26.45472656 -11.6596875 25.90945312 -11.484375 25.34765625 C-8.59245718 16.34886941 -4.71909069 8.18104657 0 0 Z " fill="#FBFAFA" transform="translate(144,42)"/>
<path d="M0 0 C0 79.2 0 158.4 0 240 C-15.18 240 -30.36 240 -46 240 C-46 193.8 -46 147.6 -46 100 C-58.00121408 108.78564877 -58.00121408 108.78564877 -64 115 C-69.96380538 120.61568771 -76.08350512 125.93614688 -82.5234375 130.99609375 C-86.03171324 133.83480898 -89.35213971 136.86403899 -92.6875 139.90234375 C-95.73661407 142.66817864 -98.86082268 145.3375669 -102 148 C-103.3130472 149.12436128 -104.62555581 150.24935188 -105.9375 151.375 C-106.95833333 152.25 -107.97916667 153.125 -109 154 C-113.16655284 152.73740823 -115.76458792 150.65163121 -118.94140625 147.81640625 C-121.26351766 145.76748442 -123.6550283 143.8228956 -126.0625 141.875 C-131.09209991 137.77936981 -136.0125909 133.56883058 -140.91674805 129.32421875 C-144.99611436 125.81059568 -149.1749265 122.48305372 -153.5234375 119.3046875 C-154.25433594 118.65886719 -154.25433594 118.65886719 -155 118 C-155 117.34 -155 116.68 -155 116 C-155.53625 115.773125 -156.0725 115.54625 -156.625 115.3125 C-169.7362869 108.06678882 -176.9035605 94.44506899 -181.83984375 80.921875 C-183.19535728 77.50798906 -184.85503728 74.95856926 -187 72 C-187.71247732 70.3523962 -188.37400383 68.68236471 -189 67 C-189.70764799 65.49967656 -190.4160474 63.99970741 -191.125 62.5 C-192.61749869 59.18886402 -193.47640459 56.6921356 -193 53 C-194.485 52.505 -194.485 52.505 -196 52 C-197.97973726 49.52897272 -199.47318461 46.73445531 -201.0625 44 C-201.50916016 43.26910156 -201.95582031 42.53820312 -202.41601562 41.78515625 C-205.14154206 37.14890949 -206.67939576 33.08619309 -207.44311523 27.75 C-207.62688721 27.1725 -207.81065918 26.595 -208 26 C-208.99 25.67 -209.98 25.34 -211 25 C-211.94921875 23.00390625 -211.94921875 23.00390625 -212.6875 20.5625 C-213.06455078 19.35787109 -213.06455078 19.35787109 -213.44921875 18.12890625 C-214 16 -214 16 -214 14 C-214.99 13.67 -215.98 13.34 -217 13 C-217.9140625 11.2578125 -217.9140625 11.2578125 -218.625 9.125 C-218.86476562 8.42632812 -219.10453125 7.72765625 -219.3515625 7.0078125 C-219.56554687 6.34523438 -219.77953125 5.68265625 -220 5 C-220.33 4.01 -220.66 3.02 -221 2 C-214.36867512 5.11627962 -209.08491502 9.79401557 -204 15 C-198.36045271 20.35605119 -192.60017331 25.09302184 -186.16796875 29.4609375 C-183.45832355 31.38454148 -181.29057828 33.5948928 -179 36 C-173.8934634 40.78570707 -168.71440995 45.29996707 -163.0546875 49.4140625 C-159.72154021 51.98679596 -156.67593946 54.87123578 -153.5703125 57.7109375 C-151.10943228 59.90254208 -148.58927022 61.96267453 -146 64 C-142.54714974 66.71911958 -139.24654632 69.53752649 -136 72.5 C-131.17113327 76.89879579 -126.13320205 80.96451347 -121 85 C-119.12374689 86.49843227 -117.24871198 87.99839139 -115.375 89.5 C-114.53710938 90.1703125 -113.69921875 90.840625 -112.8359375 91.53125 C-112.23007812 92.0159375 -111.62421875 92.500625 -111 93 C-105.00334038 88.77312817 -99.64568472 84.0052566 -94.3203125 78.9765625 C-92 77 -92 77 -90 77 C-90 76.34 -90 75.68 -90 75 C-88.59321977 73.75185669 -87.12120296 72.5769161 -85.625 71.4375 C-81.97755265 68.59546648 -78.47406243 65.6838332 -75.0625 62.5625 C-71.62469684 59.42597536 -68.11846958 56.42632913 -64.5 53.5 C-60.03579543 49.88850866 -55.76997886 46.11339306 -51.52734375 42.24609375 C-48.05457486 39.15978445 -44.43648782 36.26716824 -40.8203125 33.3515625 C-36.80948764 30.00735673 -33.01408226 26.45229849 -29.21484375 22.87109375 C-27 21 -27 21 -25 21 C-25 20.34 -25 19.68 -25 19 C-23.47162731 17.60400604 -21.87349901 16.28412351 -20.25 15 C-19.25613281 14.20722656 -18.26226562 13.41445313 -17.23828125 12.59765625 C-16.71057129 12.17758301 -16.18286133 11.75750977 -15.63916016 11.32470703 C-13.96061686 9.96817204 -12.31146955 8.58232809 -10.66796875 7.18359375 C-10.12817383 6.72533203 -9.58837891 6.26707031 -9.03222656 5.79492188 C-7.49778504 4.48881427 -5.9656415 3.18000841 -4.43359375 1.87109375 C-2 0 -2 0 0 0 Z " fill="#FCFCFC" transform="translate(403,48)"/>
<path d="M0 0 C0 79.2 0 158.4 0 240 C-15.18 240 -30.36 240 -46 240 C-46.33 193.47 -46.66 146.94 -47 99 C-46.34 99 -45.68 99 -45 99 C-45 145.2 -45 191.4 -45 239 C-30.48 239 -15.96 239 -1 239 C-1.33 162.11 -1.66 85.22 -2 6 C-7.76268781 8.43481675 -7.76268781 8.43481675 -10 13 C-10.66 13 -11.32 13 -12 13 C-12.33 13.66 -12.66 14.32 -13 15 C-13 14.34 -13 13.68 -13 13 C-13.99 12.67 -14.98 12.34 -16 12 C-14.41856529 10.56041153 -12.83477221 9.12341355 -11.25 7.6875 C-10.36828125 6.88699219 -9.4865625 6.08648437 -8.578125 5.26171875 C-2.58031088 0 -2.58031088 0 0 0 Z " fill="#C7C6C6" transform="translate(403,48)"/>
<path d="M0 0 C0 23.76 0 47.52 0 72 C-0.33 72 -0.66 72 -1 72 C-1.33 50.22 -1.66 28.44 -2 6 C-7.76268781 8.43481675 -7.76268781 8.43481675 -10 13 C-10.66 13 -11.32 13 -12 13 C-12.33 13.66 -12.66 14.32 -13 15 C-13 14.34 -13 13.68 -13 13 C-13.99 12.67 -14.98 12.34 -16 12 C-14.41856529 10.56041153 -12.83477221 9.12341355 -11.25 7.6875 C-10.36828125 6.88699219 -9.4865625 6.08648437 -8.578125 5.26171875 C-2.58031088 0 -2.58031088 0 0 0 Z " fill="#CAC9CA" transform="translate(403,48)"/>
<path d="M0 0 C6.53038596 3.06884507 14.6869129 8.37382579 18 15 C17.01 15.33 16.02 15.66 15 16 C15 15.01 15 14.02 15 13 C14.01 13.66 13.02 14.32 12 15 C12 15.99 12 16.98 12 18 C12 20 12 22 12 24 C10 23 10 23 9.1484375 21.00390625 C8.89320313 20.19824219 8.63796875 19.39257812 8.375 18.5625 C8.11460937 17.75941406 7.85421875 16.95632812 7.5859375 16.12890625 C7 14 7 14 7 12 C6.01 11.67 5.02 11.34 4 11 C3.0859375 9.2578125 3.0859375 9.2578125 2.375 7.125 C2.13523438 6.42632812 1.89546875 5.72765625 1.6484375 5.0078125 C1.43445313 4.34523438 1.22046875 3.68265625 1 3 C0.67 2.01 0.34 1.02 0 0 Z " fill="#E0DEDD" transform="translate(182,50)"/>
<path d="M0 0 C22.11 0 44.22 0 67 0 C65.68 1.32 64.36 2.64 63 4 C62.505 2.515 62.505 2.515 62 1 C41.54 1 21.08 1 0 1 C0 0.67 0 0.34 0 0 Z " fill="#E3E1E2" transform="translate(97,246)"/>
<path d="M0 0 C0.78375 0.04125 1.5675 0.0825 2.375 0.125 C-1.13058721 3.68185722 -4.73053239 7.08783047 -8.4375 10.4375 C-9.41332031 11.32050781 -10.38914062 12.20351562 -11.39453125 13.11328125 C-12.13058594 13.77714844 -12.86664063 14.44101563 -13.625 15.125 C-14.625 12.125 -14.625 12.125 -13.625 10.0625 C-13.13 9.1034375 -13.13 9.1034375 -12.625 8.125 C-12.955 7.465 -13.285 6.805 -13.625 6.125 C-10.625 5.125 -10.625 5.125 -7.625 5.125 C-6.635 4.795 -5.645 4.465 -4.625 4.125 C-4.625 3.465 -4.625 2.805 -4.625 2.125 C-2.625 0.125 -2.625 0.125 0 0 Z " fill="#2E2E2E" transform="translate(341.625,96.875)"/>
<path d="M0 0 C-0.125 1.8125 -0.125 1.8125 -1 4 C-2.99145391 5.01691264 -4.99187074 6.01642648 -7 7 C-8.40466953 9.05093145 -8.40466953 9.05093145 -9 11 C-9.66 11 -10.32 11 -11 11 C-11.33 11.66 -11.66 12.32 -12 13 C-12 12.34 -12 11.68 -12 11 C-12.99 10.67 -13.98 10.34 -15 10 C-13.37744772 8.51814875 -11.75188112 7.03959744 -10.125 5.5625 C-9.22007812 4.73878906 -8.31515625 3.91507813 -7.3828125 3.06640625 C-4.52804834 0.59071733 -3.78437828 0 0 0 Z " fill="#DCDCDC" transform="translate(402,50)"/>
<path d="M0 0 C6.75 -0.125 6.75 -0.125 9 1 C7.49776416 5.20626034 4.71449966 6.73900021 1 9 C-1.09230769 4.56923077 -1.09230769 4.56923077 -0.625 1.6875 C-0.41875 1.130625 -0.2125 0.57375 0 0 Z " fill="#2E2C2D" transform="translate(392,46)"/>
<path d="M0 0 C0.66 0.33 1.32 0.66 2 1 C1.34 2.65 0.68 4.3 0 6 C-0.99 6 -1.98 6 -3 6 C-3.33 7.32 -3.66 8.64 -4 10 C-3.34 10.33 -2.68 10.66 -2 11 C-2.99 11.33 -3.98 11.66 -5 12 C-5.33 11.01 -5.66 10.02 -6 9 C-7.32 9.99 -8.64 10.98 -10 12 C-10.66 11.67 -11.32 11.34 -12 11 C-10.37660195 9.29115995 -8.70680947 7.62553283 -7 6 C-6.34 6 -5.68 6 -5 6 C-4.67 5.01 -4.34 4.02 -4 3 C-1.9375 1.3125 -1.9375 1.3125 0 0 Z " fill="#444343" transform="translate(348,154)"/>
<path d="M0 0 C1.32 0 2.64 0 4 0 C4 0.99 4 1.98 4 3 C4.99 3.33 5.98 3.66 7 4 C7 6.97 7 9.94 7 13 C4 9.25 4 9.25 4 7 C3.34 7 2.68 7 2 7 C1.34 4.69 0.68 2.38 0 0 Z " fill="#323030" transform="translate(249,247)"/>
<path d="M0 0 C1.32 0.33 2.64 0.66 4 1 C-0.1388889 6.22498031 -3.98598452 9.99299226 -10 13 C-10 11.68 -10 10.36 -10 9 C-9.360625 8.87625 -8.72125 8.7525 -8.0625 8.625 C-7.381875 8.41875 -6.70125 8.2125 -6 8 C-5.67 7.34 -5.34 6.68 -5 6 C-4.34 6 -3.68 6 -3 6 C-2.01 4.02 -1.02 2.04 0 0 Z " fill="#E0DEDF" transform="translate(305,187)"/>
<path d="M0 0 C0.66 0.33 1.32 0.66 2 1 C1.12360894 2.49076829 0.22303672 3.96733869 -0.6875 5.4375 C-1.43580078 6.67306641 -1.43580078 6.67306641 -2.19921875 7.93359375 C-4.41557437 10.47687384 -5.6931458 10.71357956 -9 11 C-9.99 11 -10.98 11 -12 11 C-10.71034824 9.62437146 -9.37310707 8.29233607 -8 7 C-7.34 7 -6.68 7 -6 7 C-6 6.34 -6 5.68 -6 5 C-4.04072937 3.2856382 -2.04119788 1.61594832 0 0 Z " fill="#CBCACB" transform="translate(384,62)"/>
<path d="M0 0 C0.99 0.33 1.98 0.66 3 1 C4.1875 4.5625 4.1875 4.5625 5 8 C4.34 7.67 3.68 7.34 3 7 C3 6.34 3 5.68 3 5 C1.68 5 0.36 5 -1 5 C-1 6.65 -1 8.3 -1 10 C-1.99 9.67 -2.98 9.34 -4 9 C-2.80100302 5.9168649 -1.52299523 2.93720508 0 0 Z " fill="#BBBAB9" transform="translate(144,42)"/>
<path d="M0 0 C0.66 0.33 1.32 0.66 2 1 C2 1.99 2 2.98 2 4 C2.33 3.34 2.66 2.68 3 2 C3.66 2 4.32 2 5 2 C4.6875 3.875 4.6875 3.875 4 6 C3.01 6.66 2.02 7.32 1 8 C-0.65 6.35 -2.3 4.7 -4 3 C-3.34 3 -2.68 3 -2 3 C-2 2.34 -2 1.68 -2 1 C-1.34 0.67 -0.68 0.34 0 0 Z " fill="#323131" transform="translate(291,134)"/>
<path d="M0 0 C3.81684226 1.55500981 6.19195732 4.03595495 9 7 C8.01 7 7.02 7 6 7 C6 8.65 6 10.3 6 12 C3.42852716 10.71426358 3.36852166 9.78645458 2.4375 7.125 C2.18871094 6.42632812 1.93992188 5.72765625 1.68359375 5.0078125 C1.11599908 3.34070587 0.55690288 1.67070865 0 0 Z " fill="#BBB9BA" transform="translate(182,50)"/>
<path d="M0 0 C2.52259061 1.97420135 2.9929808 2.96745642 3.6875 6.1875 C3.790625 7.115625 3.89375 8.04375 4 9 C4.66 9 5.32 9 6 9 C6.33 10.65 6.66 12.3 7 14 C6.34 13.67 5.68 13.34 5 13 C5 12.34 5 11.68 5 11 C4.01 11.33 3.02 11.66 2 12 C1.855625 11.38125 1.71125 10.7625 1.5625 10.125 C1.06847775 7.96741678 1.06847775 7.96741678 0 6 C-0.039992 4.00039988 -0.04346799 1.99952758 0 0 Z " fill="#4C4A49" transform="translate(207,273)"/>
<path d="M0 0 C2.89932357 2.39509338 3.50168276 4.31245243 4 8 C3.236875 7.835 2.47375 7.67 1.6875 7.5 C-1.03596236 6.90854604 -1.03596236 6.90854604 -4 7 C-3.67 6.01 -3.34 5.02 -3 4 C-2.01 3.67 -1.02 3.34 0 3 C0 2.01 0 1.02 0 0 Z " fill="#484848" transform="translate(164,187)"/>
<path d="M0 0 C1.32 0.33 2.64 0.66 4 1 C5.01382963 4.6208201 5.49897691 8.27811418 6 12 C2.93434853 10.46717427 2.35819292 8.07069703 1 5 C0.3125 2.125 0.3125 2.125 0 0 Z " fill="#6C6A6B" transform="translate(180,111)"/>
<path d="M0 0 C1.875 0.9375 1.875 0.9375 4 3 C4.95351561 5.95485056 5.51196718 8.9369519 6 12 C4.68 11.67 3.36 11.34 2 11 C2 8.69 2 6.38 2 4 C1.34 4 0.68 4 0 4 C0 2.68 0 1.36 0 0 Z " fill="#726F70" transform="translate(206,98)"/>
<path d="M0 0 C1.0326802 2.78823655 1.04509293 3.8677274 0.0625 6.75 C-0.288125 7.4925 -0.63875 8.235 -1 9 C-1.66 9 -2.32 9 -3 9 C-3.33 10.65 -3.66 12.3 -4 14 C-4.66 14 -5.32 14 -6 14 C-4.45941767 8.98491285 -2.97068161 4.3852919 0 0 Z " fill="#B2B0B0" transform="translate(119,91)"/>
<path d="M0 0 C0.78375 0.04125 1.5675 0.0825 2.375 0.125 C-0.79452847 3.38508643 -4.02437989 6.34737877 -7.625 9.125 C-7.295 7.475 -6.965 5.825 -6.625 4.125 C-5.965 4.125 -5.305 4.125 -4.625 4.125 C-4.625 3.465 -4.625 2.805 -4.625 2.125 C-2.625 0.125 -2.625 0.125 0 0 Z " fill="#363435" transform="translate(341.625,96.875)"/>
<path d="M0 0 C3.79588866 0.54226981 5.47211993 2.20127563 8 5 C5.525 6.485 5.525 6.485 3 8 C3 7.01 3 6.02 3 5 C2.0206121 3.97980427 1.02104551 2.97850195 0 2 C0 1.34 0 0.68 0 0 Z " fill="#2B2B2B" transform="translate(268,184)"/>
<path d="M0 0 C0.66 1.32 1.32 2.64 2 4 C1.34 4 0.68 4 0 4 C0.33 5.32 0.66 6.64 1 8 C0.01 7.67 -0.98 7.34 -2 7 C-2 6.01 -2 5.02 -2 4 C-2.99 4.99 -3.98 5.98 -5 7 C-5.66 6.67 -6.32 6.34 -7 6 C-4.69 4.02 -2.38 2.04 0 0 Z " fill="#444041" transform="translate(148,260)"/>
<path d="M0 0 C2.475 0.495 2.475 0.495 5 1 C5.33 2.32 5.66 3.64 6 5 C4.68 5.99 3.36 6.98 2 8 C0.23537317 4.91190305 0 3.76687864 0 0 Z " fill="#EFEEEE" transform="translate(187,56)"/>
<path d="M0 0 C3 1 3 1 4.8125 3.8125 C6 7 6 7 5.1875 9.375 C4.795625 9.91125 4.40375 10.4475 4 11 C3.67 10.01 3.34 9.02 3 8 C2.484375 7.175 1.96875 6.35 1.4375 5.5 C0 3 0 3 0 0 Z " fill="#2D2D2D" transform="translate(194,251)"/>
<path d="M0 0 C0.33 0.99 0.66 1.98 1 3 C-0.32 4.32 -1.64 5.64 -3 7 C-4.32 6.34 -5.64 5.68 -7 5 C-2.25 0 -2.25 0 0 0 Z " fill="#423C3D" transform="translate(162,249)"/>
<path d="M0 0 C0.66 0 1.32 0 2 0 C2.64910154 1.58199631 3.29414694 3.16565724 3.9375 4.75 C4.29714844 5.63171875 4.65679687 6.5134375 5.02734375 7.421875 C5.85356576 9.61186104 6.49369943 11.71898271 7 14 C4.525 13.01 4.525 13.01 2 12 C2.04125 11.13375 2.0825 10.2675 2.125 9.375 C1.99542279 5.87641532 1.23980344 3.25448403 0 0 Z " fill="#686665" transform="translate(185,229)"/>
<path d="M0 0 C0.66 0 1.32 0 2 0 C2.66 1.98 3.32 3.96 4 6 C2.02 6.99 2.02 6.99 0 8 C-0.79953138 4.71303767 -1.09658936 3.28976808 0 0 Z " fill="#2D2D2D" transform="translate(171,204)"/>
<path d="M0 0 C2 3 2 3 1.625 6.1875 C1.41875 7.115625 1.2125 8.04375 1 9 C-0.32 8.34 -1.64 7.68 -3 7 C-2.38722388 4.03824877 -1.74627478 2.61941217 0 0 Z " fill="#393435" transform="translate(38,245)"/>
<path d="M0 0 C0 0.99 0 1.98 0 3 C-0.99 3.33 -1.98 3.66 -3 4 C-3.33 3.67 -3.66 3.34 -4 3 C-5.32 4.32 -6.64 5.64 -8 7 C-7.39816251 4.97954558 -6.72693904 2.97888961 -6 1 C-4 0 -4 0 0 0 Z " fill="#555555" transform="translate(143,162)"/>
<path d="M0 0 C1.32 0.99 2.64 1.98 4 3 C3.125 7.75 3.125 7.75 2 10 C-0.09350689 6.5980513 -0.17942163 3.94727588 0 0 Z " fill="#D8D5D5" transform="translate(191,64)"/>
<path d="M0 0 C0.66 0 1.32 0 2 0 C1.938125 0.7425 1.87625 1.485 1.8125 2.25 C2.03094296 5.45383006 2.90250005 6.64031256 5 9 C1.63408134 7.55746343 -0.51047079 5.66735273 -3 3 C-2.01 3 -1.02 3 0 3 C0 2.01 0 1.02 0 0 Z " fill="#504E4F" transform="translate(274,121)"/>
<path d="M0 0 C0.99 0.33 1.98 0.66 3 1 C3.33 2.98 3.66 4.96 4 7 C1.37812506 5.95125002 0.20628639 5.35068687 -1.25 2.875 C-1.4975 2.25625 -1.745 1.6375 -2 1 C-1.34 0.67 -0.68 0.34 0 0 Z " fill="#434343" transform="translate(220,77)"/>
<path d="M0 0 C0.66 0.33 1.32 0.66 2 1 C1.01 1 0.02 1 -1 1 C-0.67 0.67 -0.34 0.34 0 0 Z M-3.3125 1.75 C-2.549375 1.8325 -1.78625 1.915 -1 2 C-1.99 2.495 -1.99 2.495 -3 3 C-3 3.66 -3 4.32 -3 5 C-4.98 5.33 -6.96 5.66 -9 6 C-6.66153846 2.06153846 -6.66153846 2.06153846 -3.3125 1.75 Z " fill="#343132" transform="translate(322,180)"/>
<path d="M0 0 C0.99 0 1.98 0 3 0 C1.60667426 3.36720387 0.0210714 4.9859524 -3 7 C-2.38722388 4.03824877 -1.74627478 2.61941217 0 0 Z " fill="#323031" transform="translate(366,74)"/>
<path d="M0 0 C2 1 4 2 6 3 C5.34 4.65 4.68 6.3 4 8 C3.34 6.68 2.68 5.36 2 4 C1.34 4 0.68 4 0 4 C0 2.68 0 1.36 0 0 Z " fill="#BFBDBC" transform="translate(203,264)"/>
<path d="M0 0 C0.99 0.33 1.98 0.66 3 1 C2.25 6.75 2.25 6.75 0 9 C-0.33 7.68 -0.66 6.36 -1 5 C-0.01 4.67 0.98 4.34 2 4 C1.34 3.67 0.68 3.34 0 3 C0 2.01 0 1.02 0 0 Z " fill="#403F40" transform="translate(63,195)"/>
<path d="M0 0 C0.33 0 0.66 0 1 0 C1.625 2.8125 1.625 2.8125 2 6 C1.01 7.485 1.01 7.485 0 9 C-1.5625 6.625 -1.5625 6.625 -3 4 C-2.67 3.34 -2.34 2.68 -2 2 C-1.34 2.33 -0.68 2.66 0 3 C0 2.01 0 1.02 0 0 Z " fill="#4F4E4C" transform="translate(219,181)"/>
<path d="M0 0 C0.33 0.66 0.66 1.32 1 2 C-2.41176471 8.70588235 -2.41176471 8.70588235 -5 10 C-5.33 9.01 -5.66 8.02 -6 7 C-5.38125 6.5875 -4.7625 6.175 -4.125 5.75 C-1.93231719 3.94426121 -1.07211583 2.5909466 0 0 Z " fill="#6B696A" transform="translate(76,177)"/>
<path d="M0 0 C2.64 0.66 5.28 1.32 8 2 C8 3.65 8 5.3 8 7 C6.66382648 6.02471263 5.3311249 5.04466681 4 4.0625 C3.2575 3.51722656 2.515 2.97195312 1.75 2.41015625 C1.1725 1.94480469 0.595 1.47945313 0 1 C0 0.67 0 0.34 0 0 Z " fill="#575553" transform="translate(263,117)"/>
<path d="M0 0 C0.66 0.66 1.32 1.32 2 2 C1.625 4.625 1.625 4.625 1 7 C0.34 7 -0.32 7 -1 7 C-1.625 5.1875 -1.625 5.1875 -2 3 C-1.34 2.01 -0.68 1.02 0 0 Z " fill="#413F40" transform="translate(260,263)"/>
<path d="M0 0 C1.33332095 2.6666419 0.67102033 4.16680303 0 7 C-0.66 7 -1.32 7 -2 7 C-2 7.66 -2 8.32 -2 9 C-2.66 9 -3.32 9 -4 9 C-2.80100302 5.9168649 -1.52299523 2.93720508 0 0 Z " fill="#5C5A5B" transform="translate(110,218)"/>
<path d="M0 0 C0.99 0.66 1.98 1.32 3 2 C1.71034824 3.37562854 0.37310707 4.70766393 -1 6 C-1.66 6 -2.32 6 -3 6 C-2.67 4.68 -2.34 3.36 -2 2 C-1.34 2 -0.68 2 0 2 C0 1.34 0 0.68 0 0 Z " fill="#393536" transform="translate(321,113)"/>
<path d="M0 0 C0.66 0.33 1.32 0.66 2 1 C-1.75 5.875 -1.75 5.875 -4 7 C-3.6875 4.625 -3.6875 4.625 -3 2 C-2.01 1.34 -1.02 0.68 0 0 Z " fill="#333231" transform="translate(124,79)"/>
</svg>
